<svg width="43" height="43" viewBox="0 0 43 43" fill="none" xmlns="http://www.w3.org/2000/svg">
<path d="M21.2205 0.0167221L21.5 0C22.0851 7.71863e-05 22.6499 0.214895 23.0871 0.603709C23.5244 0.992522 23.8037 1.52829 23.8722 2.10939L23.8889 2.38889V19.1111H40.6111C41.1962 19.1112 41.761 19.326 42.1982 19.7148C42.6355 20.1036 42.9148 20.6394 42.9833 21.2205L43 21.5C42.9999 22.0851 42.7851 22.6499 42.3963 23.0871C42.0075 23.5244 41.4717 23.8037 40.8906 23.8722L40.6111 23.8889H23.8889V40.6111C23.8888 41.1962 23.674 41.761 23.2852 42.1982C22.8964 42.6355 22.3606 42.9148 21.7795 42.9833L21.5 43C20.9149 42.9999 20.3501 42.7851 19.9129 42.3963C19.4756 42.0075 19.1963 41.4717 19.1278 40.8906L19.1111 40.6111V23.8889H2.38889C1.80377 23.8888 1.23903 23.674 0.801778 23.2852C0.364528 22.8964 0.085181 22.3606 0.0167221 21.7795L0 21.5C7.71863e-05 20.9149 0.214895 20.3501 0.603709 19.9129C0.992522 19.4756 1.52829 19.1963 2.10939 19.1278L2.38889 19.1111H19.1111V2.38889C19.1112 1.80377 19.326 1.23903 19.7148 0.801778C20.1036 0.364528 20.6394 0.085181 21.2205 0.0167221L21.5 0L21.2205 0.0167221Z" fill="#747280"/>
</svg>
