<svg width="541" height="413" viewBox="0 0 541 413" fill="none" xmlns="http://www.w3.org/2000/svg">
<path d="M128.676 62.5H404.324C405.045 62.5 405.688 62.5455 406.14 62.6155C406.29 62.6387 406.41 62.6633 406.5 62.6868V119.313C406.41 119.337 406.29 119.361 406.14 119.385C405.688 119.455 405.045 119.5 404.324 119.5H128.676C127.955 119.5 127.312 119.455 126.86 119.385C126.71 119.361 126.59 119.337 126.5 119.313V62.6868C126.59 62.6633 126.71 62.6387 126.86 62.6155C127.312 62.5455 127.955 62.5 128.676 62.5Z" fill="white" stroke="#CACACA"/>
<path d="M128.676 128.5H404.324C405.045 128.5 405.688 128.545 406.14 128.615C406.29 128.639 406.41 128.663 406.5 128.687V185.313C406.41 185.337 406.29 185.361 406.14 185.385C405.688 185.455 405.045 185.5 404.324 185.5H128.676C127.955 185.5 127.312 185.455 126.86 185.385C126.71 185.361 126.59 185.337 126.5 185.313V128.687C126.59 128.663 126.71 128.639 126.86 128.615C127.312 128.545 127.955 128.5 128.676 128.5Z" fill="white" stroke="#CACACA"/>
<path d="M128.676 199.5H404.324C405.045 199.5 405.688 199.545 406.14 199.615C406.29 199.639 406.41 199.663 406.5 199.687V256.313C406.41 256.337 406.29 256.361 406.14 256.385C405.688 256.455 405.045 256.5 404.324 256.5H128.676C127.955 256.5 127.312 256.455 126.86 256.385C126.71 256.361 126.59 256.337 126.5 256.313V199.687C126.59 199.663 126.71 199.639 126.86 199.615C127.312 199.545 127.955 199.5 128.676 199.5Z" fill="white" stroke="#CACACA"/>
<path d="M186.349 298.248V300.96H181.885V315H178.525V300.96H174.061V298.248H186.349ZM190.505 300.12C189.913 300.12 189.417 299.936 189.017 299.568C188.633 299.184 188.441 298.712 188.441 298.152C188.441 297.592 188.633 297.128 189.017 296.76C189.417 296.376 189.913 296.184 190.505 296.184C191.097 296.184 191.585 296.376 191.969 296.76C192.369 297.128 192.569 297.592 192.569 298.152C192.569 298.712 192.369 299.184 191.969 299.568C191.585 299.936 191.097 300.12 190.505 300.12ZM192.161 301.704V315H188.801V301.704H192.161ZM194.616 308.304C194.616 306.96 194.88 305.768 195.408 304.728C195.952 303.688 196.688 302.888 197.616 302.328C198.544 301.768 199.576 301.488 200.712 301.488C201.576 301.488 202.4 301.68 203.184 302.064C203.968 302.432 204.592 302.928 205.056 303.552V297.24H208.464V315H205.056V313.032C204.64 313.688 204.056 314.216 203.304 314.616C202.552 315.016 201.68 315.216 200.688 315.216C199.568 315.216 198.544 314.928 197.616 314.352C196.688 313.776 195.952 312.968 195.408 311.928C194.88 310.872 194.616 309.664 194.616 308.304ZM205.08 308.352C205.08 307.536 204.92 306.84 204.6 306.264C204.28 305.672 203.848 305.224 203.304 304.92C202.76 304.6 202.176 304.44 201.552 304.44C200.928 304.44 200.352 304.592 199.824 304.896C199.296 305.2 198.864 305.648 198.528 306.24C198.208 306.816 198.048 307.504 198.048 308.304C198.048 309.104 198.208 309.808 198.528 310.416C198.864 311.008 199.296 311.464 199.824 311.784C200.368 312.104 200.944 312.264 201.552 312.264C202.176 312.264 202.76 312.112 203.304 311.808C203.848 311.488 204.28 311.04 204.6 310.464C204.92 309.872 205.08 309.168 205.08 308.352ZM210.882 308.304C210.882 306.96 211.146 305.768 211.674 304.728C212.218 303.688 212.946 302.888 213.858 302.328C214.786 301.768 215.818 301.488 216.954 301.488C217.946 301.488 218.81 301.688 219.546 302.088C220.298 302.488 220.898 302.992 221.346 303.6V301.704H224.73V315H221.346V313.056C220.914 313.68 220.314 314.2 219.546 314.616C218.794 315.016 217.922 315.216 216.93 315.216C215.81 315.216 214.786 314.928 213.858 314.352C212.946 313.776 212.218 312.968 211.674 311.928C211.146 310.872 210.882 309.664 210.882 308.304ZM221.346 308.352C221.346 307.536 221.186 306.84 220.866 306.264C220.546 305.672 220.114 305.224 219.57 304.92C219.026 304.6 218.442 304.44 217.818 304.44C217.194 304.44 216.618 304.592 216.09 304.896C215.562 305.2 215.13 305.648 214.794 306.24C214.474 306.816 214.314 307.504 214.314 308.304C214.314 309.104 214.474 309.808 214.794 310.416C215.13 311.008 215.562 311.464 216.09 311.784C216.634 312.104 217.21 312.264 217.818 312.264C218.442 312.264 219.026 312.112 219.57 311.808C220.114 311.488 220.546 311.04 220.866 310.464C221.186 309.872 221.346 309.168 221.346 308.352ZM235.883 315L231.371 309.336V315H228.011V297.24H231.371V307.344L235.835 301.704H240.203L234.347 308.376L240.251 315H235.883ZM246.882 308.304C246.882 306.96 247.146 305.768 247.674 304.728C248.218 303.688 248.946 302.888 249.858 302.328C250.786 301.768 251.818 301.488 252.954 301.488C253.946 301.488 254.81 301.688 255.546 302.088C256.298 302.488 256.898 302.992 257.346 303.6V301.704H260.73V315H257.346V313.056C256.914 313.68 256.314 314.2 255.546 314.616C254.794 315.016 253.922 315.216 252.93 315.216C251.81 315.216 250.786 314.928 249.858 314.352C248.946 313.776 248.218 312.968 247.674 311.928C247.146 310.872 246.882 309.664 246.882 308.304ZM257.346 308.352C257.346 307.536 257.186 306.84 256.866 306.264C256.546 305.672 256.114 305.224 255.57 304.92C255.026 304.6 254.442 304.44 253.818 304.44C253.194 304.44 252.618 304.592 252.09 304.896C251.562 305.2 251.13 305.648 250.794 306.24C250.474 306.816 250.314 307.504 250.314 308.304C250.314 309.104 250.474 309.808 250.794 310.416C251.13 311.008 251.562 311.464 252.09 311.784C252.634 312.104 253.21 312.264 253.818 312.264C254.442 312.264 255.026 312.112 255.57 311.808C256.114 311.488 256.546 311.04 256.866 310.464C257.186 309.872 257.346 309.168 257.346 308.352ZM263.147 308.304C263.147 306.96 263.411 305.768 263.939 304.728C264.483 303.688 265.219 302.888 266.147 302.328C267.075 301.768 268.107 301.488 269.243 301.488C270.107 301.488 270.931 301.68 271.715 302.064C272.499 302.432 273.123 302.928 273.587 303.552V297.24H276.995V315H273.587V313.032C273.171 313.688 272.587 314.216 271.835 314.616C271.083 315.016 270.211 315.216 269.219 315.216C268.099 315.216 267.075 314.928 266.147 314.352C265.219 313.776 264.483 312.968 263.939 311.928C263.411 310.872 263.147 309.664 263.147 308.304ZM273.611 308.352C273.611 307.536 273.451 306.84 273.131 306.264C272.811 305.672 272.379 305.224 271.835 304.92C271.291 304.6 270.707 304.44 270.083 304.44C269.459 304.44 268.883 304.592 268.355 304.896C267.827 305.2 267.395 305.648 267.059 306.24C266.739 306.816 266.579 307.504 266.579 308.304C266.579 309.104 266.739 309.808 267.059 310.416C267.395 311.008 267.827 311.464 268.355 311.784C268.899 312.104 269.475 312.264 270.083 312.264C270.707 312.264 271.291 312.112 271.835 311.808C272.379 311.488 272.811 311.04 273.131 310.464C273.451 309.872 273.611 309.168 273.611 308.352ZM279.413 308.304C279.413 306.96 279.677 305.768 280.205 304.728C280.749 303.688 281.477 302.888 282.389 302.328C283.317 301.768 284.349 301.488 285.485 301.488C286.477 301.488 287.341 301.688 288.077 302.088C288.829 302.488 289.429 302.992 289.877 303.6V301.704H293.261V315H289.877V313.056C289.445 313.68 288.845 314.2 288.077 314.616C287.325 315.016 286.453 315.216 285.461 315.216C284.341 315.216 283.317 314.928 282.389 314.352C281.477 313.776 280.749 312.968 280.205 311.928C279.677 310.872 279.413 309.664 279.413 308.304ZM289.877 308.352C289.877 307.536 289.717 306.84 289.397 306.264C289.077 305.672 288.645 305.224 288.101 304.92C287.557 304.6 286.973 304.44 286.349 304.44C285.725 304.44 285.149 304.592 284.621 304.896C284.093 305.2 283.661 305.648 283.325 306.24C283.005 306.816 282.845 307.504 282.845 308.304C282.845 309.104 283.005 309.808 283.325 310.416C283.661 311.008 284.093 311.464 284.621 311.784C285.165 312.104 285.741 312.264 286.349 312.264C286.973 312.264 287.557 312.112 288.101 311.808C288.645 311.488 289.077 311.04 289.397 310.464C289.717 309.872 289.877 309.168 289.877 308.352ZM301.397 308.304C301.397 306.96 301.661 305.768 302.189 304.728C302.733 303.688 303.469 302.888 304.397 302.328C305.325 301.768 306.357 301.488 307.493 301.488C308.357 301.488 309.181 301.68 309.965 302.064C310.749 302.432 311.373 302.928 311.837 303.552V297.24H315.245V315H311.837V313.032C311.421 313.688 310.837 314.216 310.085 314.616C309.333 315.016 308.461 315.216 307.469 315.216C306.349 315.216 305.325 314.928 304.397 314.352C303.469 313.776 302.733 312.968 302.189 311.928C301.661 310.872 301.397 309.664 301.397 308.304ZM311.861 308.352C311.861 307.536 311.701 306.84 311.381 306.264C311.061 305.672 310.629 305.224 310.085 304.92C309.541 304.6 308.957 304.44 308.333 304.44C307.709 304.44 307.133 304.592 306.605 304.896C306.077 305.2 305.645 305.648 305.309 306.24C304.989 306.816 304.829 307.504 304.829 308.304C304.829 309.104 304.989 309.808 305.309 310.416C305.645 311.008 306.077 311.464 306.605 311.784C307.149 312.104 307.725 312.264 308.333 312.264C308.957 312.264 309.541 312.112 310.085 311.808C310.629 311.488 311.061 311.04 311.381 310.464C311.701 309.872 311.861 309.168 311.861 308.352ZM317.663 308.304C317.663 306.96 317.927 305.768 318.455 304.728C318.999 303.688 319.727 302.888 320.639 302.328C321.567 301.768 322.599 301.488 323.735 301.488C324.727 301.488 325.591 301.688 326.327 302.088C327.079 302.488 327.679 302.992 328.127 303.6V301.704H331.511V315H328.127V313.056C327.695 313.68 327.095 314.2 326.327 314.616C325.575 315.016 324.703 315.216 323.711 315.216C322.591 315.216 321.567 314.928 320.639 314.352C319.727 313.776 318.999 312.968 318.455 311.928C317.927 310.872 317.663 309.664 317.663 308.304ZM328.127 308.352C328.127 307.536 327.967 306.84 327.647 306.264C327.327 305.672 326.895 305.224 326.351 304.92C325.807 304.6 325.223 304.44 324.599 304.44C323.975 304.44 323.399 304.592 322.871 304.896C322.343 305.2 321.911 305.648 321.575 306.24C321.255 306.816 321.095 307.504 321.095 308.304C321.095 309.104 321.255 309.808 321.575 310.416C321.911 311.008 322.343 311.464 322.871 311.784C323.415 312.104 323.991 312.264 324.599 312.264C325.223 312.264 325.807 312.112 326.351 311.808C326.895 311.488 327.327 311.04 327.647 310.464C327.967 309.872 328.127 309.168 328.127 308.352ZM338.705 304.464V310.896C338.705 311.344 338.809 311.672 339.017 311.88C339.241 312.072 339.609 312.168 340.121 312.168H341.681V315H339.569C336.737 315 335.321 313.624 335.321 310.872V304.464H333.737V301.704H335.321V298.416H338.705V301.704H341.681V304.464H338.705ZM343.233 308.304C343.233 306.96 343.497 305.768 344.025 304.728C344.569 303.688 345.297 302.888 346.209 302.328C347.137 301.768 348.169 301.488 349.305 301.488C350.297 301.488 351.161 301.688 351.897 302.088C352.649 302.488 353.249 302.992 353.697 303.6V301.704H357.081V315H353.697V313.056C353.265 313.68 352.665 314.2 351.897 314.616C351.145 315.016 350.273 315.216 349.281 315.216C348.161 315.216 347.137 314.928 346.209 314.352C345.297 313.776 344.569 312.968 344.025 311.928C343.497 310.872 343.233 309.664 343.233 308.304ZM353.697 308.352C353.697 307.536 353.537 306.84 353.217 306.264C352.897 305.672 352.465 305.224 351.921 304.92C351.377 304.6 350.793 304.44 350.169 304.44C349.545 304.44 348.969 304.592 348.441 304.896C347.913 305.2 347.481 305.648 347.145 306.24C346.825 306.816 346.665 307.504 346.665 308.304C346.665 309.104 346.825 309.808 347.145 310.416C347.481 311.008 347.913 311.464 348.441 311.784C348.985 312.104 349.561 312.264 350.169 312.264C350.793 312.264 351.377 312.112 351.921 311.808C352.465 311.488 352.897 311.04 353.217 310.464C353.537 309.872 353.697 309.168 353.697 308.352Z" fill="#555555"/>
<path d="M374.621 96.0298H178.015C176.685 96.0298 175.41 95.5015 174.469 94.561C173.528 93.6205 173 92.3449 173 91.0149C173 89.6849 173.528 88.4093 174.469 87.4688C175.41 86.5284 176.685 86 178.015 86H374.621C375.951 86 377.227 86.5284 378.168 87.4688C379.108 88.4093 379.637 89.6849 379.637 91.0149C379.637 92.3449 379.108 93.6205 378.168 94.561C377.227 95.5015 375.951 96.0298 374.621 96.0298Z" fill="#E6E6E6"/>
<path d="M374.621 162.03H178.015C176.685 162.03 175.41 161.501 174.469 160.561C173.528 159.621 173 158.345 173 157.015C173 155.685 173.528 154.409 174.469 153.469C175.41 152.528 176.685 152 178.015 152H374.621C375.951 152 377.227 152.528 378.168 153.469C379.108 154.409 379.637 155.685 379.637 157.015C379.637 158.345 379.108 159.621 378.168 160.561C377.227 161.501 375.951 162.03 374.621 162.03Z" fill="#E6E6E6"/>
<path d="M374.621 233.03H178.015C176.685 233.03 175.41 232.501 174.469 231.561C173.528 230.621 173 229.345 173 228.015C173 226.685 173.528 225.409 174.469 224.469C175.41 223.528 176.685 223 178.015 223H374.621C375.951 223 377.227 223.528 378.168 224.469C379.108 225.409 379.637 226.685 379.637 228.015C379.637 229.345 379.108 230.621 378.168 231.561C377.227 232.501 375.951 233.03 374.621 233.03Z" fill="#E6E6E6"/>
<path d="M406.676 100.108C427.971 100.108 445.234 82.8467 445.234 61.554C445.234 40.2612 427.971 23 406.676 23C385.38 23 368.117 40.2612 368.117 61.554C368.117 82.8467 385.38 100.108 406.676 100.108Z" fill="#3B82F6"/>
<path d="M390.61 59.0092C389.935 59.0092 389.288 59.2772 388.811 59.7544C388.333 60.2315 388.065 60.8786 388.065 61.5534C388.065 62.2282 388.333 62.8753 388.811 63.3524C389.288 63.8296 389.935 64.0976 390.61 64.0976H404.132V77.6172C404.133 78.2908 404.402 78.9364 404.879 79.4122C405.356 79.888 406.002 80.1552 406.676 80.1552C407.349 80.1552 407.996 79.888 408.473 79.4122C408.95 78.9364 409.218 78.2908 409.22 77.6172V64.0976H422.742C423.416 64.0976 424.064 63.8296 424.541 63.3524C425.018 62.8753 425.286 62.2282 425.286 61.5534C425.286 60.8786 425.018 60.2315 424.541 59.7544C424.064 59.2772 423.416 59.0092 422.742 59.0092H409.22V45.489C409.22 44.8143 408.952 44.1672 408.475 43.6902C407.998 43.2131 407.35 42.9451 406.676 42.9451C406.001 42.9451 405.354 43.2131 404.877 43.6902C404.4 44.1672 404.132 44.8143 404.132 45.489V59.0092H390.61Z" fill="white"/>
<path d="M541 411.663H0V413H541V411.663Z" fill="#CACACA"/>
<path d="M452.065 381.17C454.553 382.045 457.224 382.264 459.821 381.806C462.418 381.349 464.854 380.23 466.894 378.558C472.088 374.199 473.715 367.018 475.041 360.371L478.959 340.703L470.755 346.35C464.855 350.413 458.821 354.605 454.736 360.489C450.651 366.373 448.867 374.406 452.15 380.773" fill="#E6E6E6"/>
<path d="M453.332 406.35C452.297 398.827 451.237 391.209 451.962 383.604C452.606 376.851 454.666 370.256 458.861 364.848C461.087 361.982 463.797 359.528 466.867 357.593C467.669 357.088 468.405 358.357 467.607 358.86C462.295 362.217 458.186 367.174 455.873 373.017C453.318 379.514 452.908 386.596 453.348 393.499C453.616 397.672 454.179 401.82 454.747 405.96C454.792 406.148 454.764 406.345 454.669 406.512C454.574 406.68 454.419 406.805 454.235 406.862C454.048 406.914 453.848 406.888 453.678 406.792C453.509 406.696 453.385 406.538 453.333 406.35H453.332Z" fill="#F2F2F2"/>
<path d="M447.478 395.113C446.211 396.609 444.58 397.755 442.741 398.438C440.903 399.121 438.92 399.319 436.982 399.014C432.011 398.171 428.265 394.176 424.914 390.409L415 379.266L422.389 379.804C427.702 380.191 433.15 380.612 437.984 382.85C442.818 385.089 446.984 389.571 447.273 394.89" fill="#E6E6E6"/>
<path d="M455.984 410.651C454.242 406.459 452.486 402.208 449.813 398.505C447.52 395.151 444.319 392.518 440.584 390.917C438.569 390.112 436.43 389.665 434.261 389.596C433.696 389.577 433.699 390.455 434.261 390.473C438.017 390.598 441.635 391.913 444.595 394.227C447.878 396.806 450.231 400.335 452.092 404.028C453.216 406.261 454.179 408.57 455.138 410.878C455.172 410.988 455.246 411.081 455.345 411.138C455.444 411.196 455.561 411.214 455.673 411.188C455.785 411.158 455.881 411.084 455.939 410.984C455.997 410.883 456.014 410.764 455.984 410.651V410.651Z" fill="#F2F2F2"/>
<path d="M460.765 394.281C461.832 395.902 463.298 397.222 465.024 398.112C466.749 399.002 468.674 399.433 470.614 399.362C475.6 399.126 479.757 395.646 483.499 392.342L494.566 382.571L487.242 382.221C481.974 381.969 476.571 381.733 471.553 383.357C466.536 384.982 461.909 388.891 460.991 394.083" fill="#E6E6E6"/>
<path d="M450.412 410.675C455.383 401.879 461.151 392.104 471.454 388.979C474.319 388.113 477.323 387.803 480.305 388.065C481.244 388.146 481.01 389.594 480.072 389.513C475.075 389.098 470.087 390.418 465.948 393.25C461.966 395.96 458.865 399.728 456.24 403.725C454.635 406.173 453.193 408.724 451.752 411.273C451.292 412.087 449.947 411.499 450.412 410.675Z" fill="#F2F2F2"/>
<path d="M528.042 396.966C526.122 397.641 524.06 397.81 522.056 397.457C520.052 397.104 518.172 396.241 516.598 394.951C512.59 391.587 511.333 386.045 510.312 380.914L507.288 365.735L513.62 370.095C518.173 373.23 522.829 376.465 525.982 381.006C529.134 385.547 530.511 391.746 527.978 396.659" fill="#E6E6E6"/>
<path d="M526.293 411.373C526.85 407.316 527.423 403.207 527.032 399.108C526.778 395.452 525.488 391.943 523.312 388.994C522.111 387.449 520.65 386.125 518.995 385.082C518.563 384.81 518.166 385.494 518.594 385.765C521.458 387.575 523.674 390.248 524.921 393.399C526.299 396.903 526.52 400.721 526.283 404.443C526.139 406.694 525.835 408.93 525.528 411.162C525.504 411.263 525.519 411.37 525.571 411.46C525.622 411.55 525.705 411.617 525.804 411.648C525.906 411.675 526.013 411.661 526.104 411.609C526.195 411.558 526.262 411.473 526.291 411.372L526.293 411.373Z" fill="#F2F2F2"/>
<circle cx="155" cy="91" r="5" fill="#E5E5E5"/>
<circle cx="155" cy="157" r="5" fill="#E5E5E5"/>
<circle cx="155" cy="228" r="5" fill="#E5E5E5"/>
</svg>
